<mxfile host="65bd71144e">
    <diagram id="d545CJ_nemm9f_6-Imyu" name="航行控制能力虚拟化方式">
        <mxGraphModel dx="1094" dy="784" grid="1" gridSize="10" guides="1" tooltips="1" connect="1" arrows="1" fold="1" page="1" pageScale="1" pageWidth="850" pageHeight="1100" math="0" shadow="0">
            <root>
                <mxCell id="0"/>
                <mxCell id="1" parent="0"/>
                <mxCell id="2" value="" style="rounded=1;whiteSpace=wrap;html=1;fillColor=#dae8fc;strokeColor=#6c8ebf;" parent="1" vertex="1">
                    <mxGeometry x="120" y="100" width="560" height="280" as="geometry"/>
                </mxCell>
                <mxCell id="3" value="&lt;font style=&quot;font-size: 20px;&quot;&gt;虚拟航行控制服务器&lt;/font&gt;" style="text;html=1;align=center;verticalAlign=middle;resizable=0;points=[];autosize=1;strokeColor=#6c8ebf;fillColor=#dae8fc;rounded=1;glass=0;shadow=0;labelBackgroundColor=none;labelBorderColor=none;fontColor=#FF3333;" parent="1" vertex="1">
                    <mxGeometry x="310" y="50" width="200" height="40" as="geometry"/>
                </mxCell>
                <mxCell id="4" value="数据接收模块" style="rounded=1;whiteSpace=wrap;html=1;shadow=0;glass=0;labelBackgroundColor=none;labelBorderColor=none;sketch=0;fontSize=20;fillColor=#dae8fc;strokeColor=#6c8ebf;" parent="1" vertex="1">
                    <mxGeometry x="460" y="290" width="150" height="60" as="geometry"/>
                </mxCell>
                <mxCell id="5" value="航行控制算法模块" style="rounded=1;whiteSpace=wrap;html=1;shadow=0;glass=0;labelBackgroundColor=none;labelBorderColor=none;sketch=0;fontSize=20;fillColor=#dae8fc;strokeColor=#6c8ebf;" parent="1" vertex="1">
                    <mxGeometry x="440" y="150" width="190" height="60" as="geometry"/>
                </mxCell>
                <mxCell id="6" value="决策模块" style="rounded=1;whiteSpace=wrap;html=1;shadow=0;glass=0;labelBackgroundColor=none;labelBorderColor=none;sketch=0;fontSize=20;fillColor=#dae8fc;strokeColor=#6c8ebf;" parent="1" vertex="1">
                    <mxGeometry x="190" y="150" width="140" height="60" as="geometry"/>
                </mxCell>
                <mxCell id="7" value="控制指令生成模块" style="rounded=1;whiteSpace=wrap;html=1;shadow=0;glass=0;labelBackgroundColor=none;labelBorderColor=none;sketch=0;fontSize=20;fillColor=#dae8fc;strokeColor=#6c8ebf;" parent="1" vertex="1">
                    <mxGeometry x="170" y="290" width="190" height="60" as="geometry"/>
                </mxCell>
                <mxCell id="8" value="" style="rounded=1;whiteSpace=wrap;html=1;fillColor=#dae8fc;strokeColor=#6c8ebf;" parent="1" vertex="1">
                    <mxGeometry x="310" y="500" width="560" height="330" as="geometry"/>
                </mxCell>
                <mxCell id="9" value="&lt;font style=&quot;font-size: 20px;&quot;&gt;无人艇传感器&lt;/font&gt;" style="text;html=1;align=center;verticalAlign=middle;resizable=0;points=[];autosize=1;strokeColor=#6c8ebf;fillColor=#dae8fc;rounded=1;glass=0;shadow=0;labelBackgroundColor=none;labelBorderColor=none;fontColor=#FF3333;" parent="1" vertex="1">
                    <mxGeometry x="510" y="840" width="140" height="40" as="geometry"/>
                </mxCell>
                <mxCell id="10" value="" style="dashed=0;aspect=fixed;verticalLabelPosition=bottom;verticalAlign=top;align=center;shape=mxgraph.gmdl.gps;strokeColor=#737373;fillColor=#737373;shadow=0;strokeWidth=2;sketch=0;rounded=1;glass=0;labelBackgroundColor=none;labelBorderColor=none;fontSize=20;fontColor=#FF3333;" parent="1" vertex="1">
                    <mxGeometry x="390" y="540" width="70" height="70" as="geometry"/>
                </mxCell>
                <mxCell id="11" value="GPS" style="rounded=1;whiteSpace=wrap;html=1;shadow=0;glass=0;labelBackgroundColor=none;labelBorderColor=none;sketch=0;fontSize=20;fillColor=#dae8fc;strokeColor=#6c8ebf;" parent="1" vertex="1">
                    <mxGeometry x="385" y="620" width="80" height="30" as="geometry"/>
                </mxCell>
                <mxCell id="12" value="" style="outlineConnect=0;dashed=0;verticalLabelPosition=bottom;verticalAlign=top;align=center;html=1;shape=mxgraph.aws3.camera;fillColor=#5294CF;gradientColor=none;rounded=1;shadow=0;glass=0;labelBackgroundColor=none;labelBorderColor=none;sketch=0;fontSize=20;fontColor=#FF3333;" parent="1" vertex="1">
                    <mxGeometry x="680" y="536" width="79.5" height="79.5" as="geometry"/>
                </mxCell>
                <mxCell id="13" value="摄像头" style="rounded=1;whiteSpace=wrap;html=1;shadow=0;glass=0;labelBackgroundColor=none;labelBorderColor=none;sketch=0;fontSize=20;fillColor=#dae8fc;strokeColor=#6c8ebf;" parent="1" vertex="1">
                    <mxGeometry x="680" y="620" width="80" height="30" as="geometry"/>
                </mxCell>
                <mxCell id="14" value="" style="sketch=0;pointerEvents=1;shadow=0;dashed=0;html=1;strokeColor=none;fillColor=#505050;labelPosition=center;verticalLabelPosition=bottom;verticalAlign=top;outlineConnect=0;align=center;shape=mxgraph.office.concepts.navigation;rounded=1;glass=0;labelBackgroundColor=none;labelBorderColor=none;fontSize=20;fontColor=#FF3333;" parent="1" vertex="1">
                    <mxGeometry x="385" y="700" width="90" height="70" as="geometry"/>
                </mxCell>
                <mxCell id="15" value="惯性导航系统" style="rounded=1;whiteSpace=wrap;html=1;shadow=0;glass=0;labelBackgroundColor=none;labelBorderColor=none;sketch=0;fontSize=20;fillColor=#dae8fc;strokeColor=#6c8ebf;" parent="1" vertex="1">
                    <mxGeometry x="357.5" y="780" width="135" height="30" as="geometry"/>
                </mxCell>
                <mxCell id="16" value="" style="verticalLabelPosition=bottom;html=1;verticalAlign=top;align=center;shape=mxgraph.floorplan.floor_lamp;rounded=1;shadow=0;glass=0;labelBackgroundColor=none;labelBorderColor=none;sketch=0;fontSize=20;fontColor=#FF3333;fillColor=default;" parent="1" vertex="1">
                    <mxGeometry x="682.25" y="700" width="75" height="70" as="geometry"/>
                </mxCell>
                <mxCell id="17" value="声呐" style="rounded=1;whiteSpace=wrap;html=1;shadow=0;glass=0;labelBackgroundColor=none;labelBorderColor=none;sketch=0;fontSize=20;fillColor=#dae8fc;strokeColor=#6c8ebf;" parent="1" vertex="1">
                    <mxGeometry x="682.25" y="780" width="80" height="30" as="geometry"/>
                </mxCell>
                <mxCell id="18" value="" style="shape=mxgraph.signs.transportation.ship_1;html=1;pointerEvents=1;fillColor=#000000;strokeColor=none;verticalLabelPosition=bottom;verticalAlign=top;align=center;rounded=1;shadow=0;glass=0;labelBackgroundColor=none;labelBorderColor=none;sketch=0;fontSize=20;fontColor=#FF3333;" parent="1" vertex="1">
                    <mxGeometry x="90" y="518.75" width="150" height="114" as="geometry"/>
                </mxCell>
                <mxCell id="19" value="指令执行" style="rounded=1;whiteSpace=wrap;html=1;shadow=0;glass=0;labelBackgroundColor=none;labelBorderColor=none;sketch=0;fontSize=20;fillColor=#dae8fc;strokeColor=#6c8ebf;" parent="1" vertex="1">
                    <mxGeometry x="90" y="640" width="150" height="60" as="geometry"/>
                </mxCell>
                <mxCell id="20" value="" style="endArrow=classic;html=1;fontSize=20;fontColor=#FF3333;strokeWidth=3;" parent="1" edge="1">
                    <mxGeometry width="50" height="50" relative="1" as="geometry">
                        <mxPoint x="580" y="500" as="sourcePoint"/>
                        <mxPoint x="580" y="380" as="targetPoint"/>
                    </mxGeometry>
                </mxCell>
                <mxCell id="21" value="&lt;font color=&quot;#0000ff&quot; style=&quot;font-size: 22px;&quot;&gt;信息传输&lt;br&gt;&lt;/font&gt;" style="text;html=1;align=center;verticalAlign=middle;resizable=0;points=[];autosize=1;strokeColor=none;fillColor=none;rotation=90;" parent="1" vertex="1">
                    <mxGeometry x="560" y="420" width="110" height="40" as="geometry"/>
                </mxCell>
                <mxCell id="22" value="" style="endArrow=classic;html=1;fontSize=20;fontColor=#FF3333;strokeWidth=3;" parent="1" edge="1">
                    <mxGeometry width="50" height="50" relative="1" as="geometry">
                        <mxPoint x="534.5" y="290" as="sourcePoint"/>
                        <mxPoint x="535" y="210" as="targetPoint"/>
                    </mxGeometry>
                </mxCell>
                <mxCell id="23" value="" style="endArrow=classic;html=1;fontSize=20;fontColor=#FF3333;strokeWidth=3;" parent="1" edge="1">
                    <mxGeometry width="50" height="50" relative="1" as="geometry">
                        <mxPoint x="440" y="179.5" as="sourcePoint"/>
                        <mxPoint x="330" y="180" as="targetPoint"/>
                    </mxGeometry>
                </mxCell>
                <mxCell id="24" value="" style="endArrow=classic;html=1;fontSize=20;fontColor=#FF3333;strokeWidth=3;" parent="1" edge="1">
                    <mxGeometry width="50" height="50" relative="1" as="geometry">
                        <mxPoint x="259.5" y="210" as="sourcePoint"/>
                        <mxPoint x="260" y="290" as="targetPoint"/>
                    </mxGeometry>
                </mxCell>
                <mxCell id="25" value="" style="endArrow=classic;html=1;fontSize=20;fontColor=#FF3333;strokeWidth=3;" parent="1" edge="1">
                    <mxGeometry width="50" height="50" relative="1" as="geometry">
                        <mxPoint x="259.5" y="380" as="sourcePoint"/>
                        <mxPoint x="160" y="520" as="targetPoint"/>
                        <Array as="points">
                            <mxPoint x="260" y="440"/>
                            <mxPoint x="160" y="440"/>
                        </Array>
                    </mxGeometry>
                </mxCell>
            </root>
        </mxGraphModel>
    </diagram>
    <diagram id="m9-72WI1hM_YVJkqMeNB" name="动态虚拟航行控制模块调度流程">
        <mxGraphModel dx="1386" dy="784" grid="1" gridSize="10" guides="1" tooltips="1" connect="1" arrows="1" fold="1" page="1" pageScale="1" pageWidth="850" pageHeight="1100" math="0" shadow="0">
            <root>
                <mxCell id="0"/>
                <mxCell id="1" parent="0"/>
                <mxCell id="2jt_3eBjgZwoX2PvziGh-1" value="&lt;span style=&quot;font-size: 25px;&quot;&gt;任务和环境监测系统&lt;/span&gt;" style="rounded=0;whiteSpace=wrap;html=1;fillColor=#f8cecc;strokeColor=#b85450;" parent="1" vertex="1">
                    <mxGeometry x="260" y="50" width="255" height="60" as="geometry"/>
                </mxCell>
                <mxCell id="2jt_3eBjgZwoX2PvziGh-2" value="&lt;font style=&quot;font-size: 30px;&quot;&gt;模块A&lt;br&gt;&lt;/font&gt;" style="rounded=0;whiteSpace=wrap;html=1;fillColor=#fff2cc;strokeColor=#d6b656;" parent="1" vertex="1">
                    <mxGeometry x="60" y="500" width="70" height="145" as="geometry"/>
                </mxCell>
                <mxCell id="2jt_3eBjgZwoX2PvziGh-3" value="&lt;font style=&quot;font-size: 20px;&quot;&gt;中央控制系统和决策制定者&lt;/font&gt;" style="rounded=0;whiteSpace=wrap;html=1;fillColor=#dae8fc;strokeColor=#6c8ebf;" parent="1" vertex="1">
                    <mxGeometry x="260" y="230" width="250" height="50" as="geometry"/>
                </mxCell>
                <mxCell id="2jt_3eBjgZwoX2PvziGh-4" value="&lt;font style=&quot;font-size: 20px;&quot;&gt;远程虚拟化和控制服务器&lt;/font&gt;" style="rounded=0;whiteSpace=wrap;html=1;fillColor=#dae8fc;strokeColor=#6c8ebf;" parent="1" vertex="1">
                    <mxGeometry x="270" y="350" width="235" height="50" as="geometry"/>
                </mxCell>
                <mxCell id="2jt_3eBjgZwoX2PvziGh-5" value="&lt;font style=&quot;font-size: 30px;&quot;&gt;模块B&lt;br&gt;&lt;/font&gt;" style="rounded=0;whiteSpace=wrap;html=1;fillColor=#fff2cc;strokeColor=#d6b656;" parent="1" vertex="1">
                    <mxGeometry x="250" y="500" width="70" height="145" as="geometry"/>
                </mxCell>
                <mxCell id="2jt_3eBjgZwoX2PvziGh-6" value="&lt;font style=&quot;font-size: 30px;&quot;&gt;模块C&lt;br&gt;&lt;/font&gt;" style="rounded=0;whiteSpace=wrap;html=1;fillColor=#fff2cc;strokeColor=#d6b656;" parent="1" vertex="1">
                    <mxGeometry x="440" y="500" width="70" height="145" as="geometry"/>
                </mxCell>
                <mxCell id="2jt_3eBjgZwoX2PvziGh-7" value="&lt;font style=&quot;font-size: 30px;&quot;&gt;模块&lt;br&gt;D&lt;br&gt;&lt;/font&gt;" style="rounded=0;whiteSpace=wrap;html=1;fillColor=#fff2cc;strokeColor=#d6b656;" parent="1" vertex="1">
                    <mxGeometry x="630" y="500" width="70" height="145" as="geometry"/>
                </mxCell>
                <mxCell id="2jt_3eBjgZwoX2PvziGh-8" value="" style="endArrow=classic;html=1;strokeWidth=3;" parent="1" edge="1">
                    <mxGeometry width="50" height="50" relative="1" as="geometry">
                        <mxPoint x="380" y="110" as="sourcePoint"/>
                        <mxPoint x="380" y="230" as="targetPoint"/>
                    </mxGeometry>
                </mxCell>
                <mxCell id="2jt_3eBjgZwoX2PvziGh-9" value="&lt;font color=&quot;#0000ff&quot; style=&quot;font-size: 22px;&quot;&gt;传感器数据和任务信息&lt;br&gt;&lt;/font&gt;" style="text;html=1;align=center;verticalAlign=middle;resizable=0;points=[];autosize=1;strokeColor=none;fillColor=none;rotation=0;" parent="1" vertex="1">
                    <mxGeometry x="380" y="150" width="240" height="40" as="geometry"/>
                </mxCell>
                <mxCell id="2jt_3eBjgZwoX2PvziGh-10" value="" style="endArrow=classic;html=1;strokeWidth=3;" parent="1" edge="1">
                    <mxGeometry width="50" height="50" relative="1" as="geometry">
                        <mxPoint x="380" y="280" as="sourcePoint"/>
                        <mxPoint x="380" y="350" as="targetPoint"/>
                    </mxGeometry>
                </mxCell>
                <mxCell id="2jt_3eBjgZwoX2PvziGh-11" value="&lt;font color=&quot;#0000ff&quot; style=&quot;font-size: 22px;&quot;&gt;决策策略&lt;br&gt;&lt;/font&gt;" style="text;html=1;align=center;verticalAlign=middle;resizable=0;points=[];autosize=1;strokeColor=none;fillColor=none;rotation=0;" parent="1" vertex="1">
                    <mxGeometry x="390" y="300" width="110" height="40" as="geometry"/>
                </mxCell>
                <mxCell id="2jt_3eBjgZwoX2PvziGh-12" value="" style="endArrow=classic;html=1;strokeWidth=3;" parent="1" edge="1">
                    <mxGeometry width="50" height="50" relative="1" as="geometry">
                        <mxPoint x="380" y="400" as="sourcePoint"/>
                        <mxPoint x="380" y="500" as="targetPoint"/>
                    </mxGeometry>
                </mxCell>
                <mxCell id="2jt_3eBjgZwoX2PvziGh-13" value="&lt;font color=&quot;#0000ff&quot; style=&quot;font-size: 22px;&quot;&gt;模块激活&lt;br&gt;&lt;/font&gt;" style="text;html=1;align=center;verticalAlign=middle;resizable=0;points=[];autosize=1;strokeColor=none;fillColor=none;rotation=0;" parent="1" vertex="1">
                    <mxGeometry x="390" y="420" width="110" height="40" as="geometry"/>
                </mxCell>
                <mxCell id="2jt_3eBjgZwoX2PvziGh-14" value="" style="endArrow=classic;startArrow=classic;html=1;strokeWidth=3;entryX=0;entryY=0.414;entryDx=0;entryDy=0;entryPerimeter=0;" parent="1" target="2jt_3eBjgZwoX2PvziGh-5" edge="1">
                    <mxGeometry width="50" height="50" relative="1" as="geometry">
                        <mxPoint x="130" y="560" as="sourcePoint"/>
                        <mxPoint x="180" y="510" as="targetPoint"/>
                    </mxGeometry>
                </mxCell>
                <mxCell id="2jt_3eBjgZwoX2PvziGh-15" value="" style="endArrow=classic;startArrow=classic;html=1;strokeWidth=3;" parent="1" edge="1">
                    <mxGeometry width="50" height="50" relative="1" as="geometry">
                        <mxPoint x="320" y="560" as="sourcePoint"/>
                        <mxPoint x="440" y="560" as="targetPoint"/>
                    </mxGeometry>
                </mxCell>
                <mxCell id="2jt_3eBjgZwoX2PvziGh-16" value="" style="endArrow=classic;startArrow=classic;html=1;strokeWidth=3;" parent="1" edge="1">
                    <mxGeometry width="50" height="50" relative="1" as="geometry">
                        <mxPoint x="510" y="560" as="sourcePoint"/>
                        <mxPoint x="630" y="560" as="targetPoint"/>
                    </mxGeometry>
                </mxCell>
            </root>
        </mxGraphModel>
    </diagram>
    <diagram id="_nZCxObFvJ-dMV1m47SB" name="智能多模块虚拟航行控制系统架构">
        <mxGraphModel dx="1944" dy="784" grid="1" gridSize="10" guides="1" tooltips="1" connect="1" arrows="1" fold="1" page="1" pageScale="1" pageWidth="850" pageHeight="1100" math="0" shadow="0">
            <root>
                <mxCell id="0"/>
                <mxCell id="1" parent="0"/>
                <mxCell id="-B6g9c8ar-UpYTgJo7nr-1" value="" style="outlineConnect=0;dashed=0;verticalLabelPosition=bottom;verticalAlign=top;align=center;html=1;shape=mxgraph.aws3.sensor;fillColor=#5294CF;gradientColor=none;" parent="1" vertex="1">
                    <mxGeometry x="359" y="100" width="133" height="140" as="geometry"/>
                </mxCell>
                <mxCell id="-B6g9c8ar-UpYTgJo7nr-2" value="传感器系统" style="rounded=1;whiteSpace=wrap;html=1;shadow=0;glass=0;labelBackgroundColor=none;labelBorderColor=none;sketch=0;fontSize=20;fillColor=#dae8fc;strokeColor=#6c8ebf;" parent="1" vertex="1">
                    <mxGeometry x="350" y="20" width="150" height="60" as="geometry"/>
                </mxCell>
                <mxCell id="-B6g9c8ar-UpYTgJo7nr-3" value="&lt;span style=&quot;font-size: 25px;&quot;&gt;任务和环境监测系统&lt;/span&gt;" style="rounded=0;whiteSpace=wrap;html=1;fillColor=#f8cecc;strokeColor=#b85450;" parent="1" vertex="1">
                    <mxGeometry x="298" y="320" width="255" height="60" as="geometry"/>
                </mxCell>
                <mxCell id="-B6g9c8ar-UpYTgJo7nr-4" value="" style="shape=mxgraph.bpmn.data;labelPosition=center;verticalLabelPosition=bottom;align=center;verticalAlign=top;whiteSpace=wrap;size=15;html=1;bpmnTransferType=none;isCollection=1;" parent="1" vertex="1">
                    <mxGeometry x="30" y="305" width="90" height="90" as="geometry"/>
                </mxCell>
                <mxCell id="-B6g9c8ar-UpYTgJo7nr-5" value="&lt;font color=&quot;#0000ff&quot; style=&quot;font-size: 22px;&quot;&gt;环境数据收集器&lt;br&gt;&lt;/font&gt;" style="text;html=1;align=center;verticalAlign=middle;resizable=0;points=[];autosize=1;strokeColor=none;fillColor=none;rotation=0;" parent="1" vertex="1">
                    <mxGeometry x="-10" y="410" width="180" height="40" as="geometry"/>
                </mxCell>
                <mxCell id="-B6g9c8ar-UpYTgJo7nr-6" value="" style="sketch=0;pointerEvents=1;shadow=0;dashed=0;html=1;strokeColor=none;fillColor=#505050;labelPosition=center;verticalLabelPosition=bottom;verticalAlign=top;outlineConnect=0;align=center;shape=mxgraph.office.services.central_management_service;" parent="1" vertex="1">
                    <mxGeometry x="392" y="480" width="100" height="144" as="geometry"/>
                </mxCell>
                <mxCell id="-B6g9c8ar-UpYTgJo7nr-7" value="&lt;font color=&quot;#0000ff&quot; style=&quot;font-size: 22px;&quot;&gt;中央控制系统和决策制定者&lt;br&gt;&lt;/font&gt;" style="text;html=1;align=center;verticalAlign=middle;resizable=0;points=[];autosize=1;strokeColor=none;fillColor=none;rotation=0;" parent="1" vertex="1">
                    <mxGeometry x="100" y="530" width="290" height="40" as="geometry"/>
                </mxCell>
                <mxCell id="-B6g9c8ar-UpYTgJo7nr-8" value="&lt;font style=&quot;font-size: 30px;&quot;&gt;控制模块A&lt;br&gt;&lt;/font&gt;" style="rounded=0;whiteSpace=wrap;html=1;fillColor=#fff2cc;strokeColor=#d6b656;" parent="1" vertex="1">
                    <mxGeometry x="180" y="720" width="140" height="90" as="geometry"/>
                </mxCell>
                <mxCell id="-B6g9c8ar-UpYTgJo7nr-9" value="&lt;font style=&quot;font-size: 30px;&quot;&gt;控制模块B&lt;br&gt;&lt;/font&gt;" style="rounded=0;whiteSpace=wrap;html=1;fillColor=#fff2cc;strokeColor=#d6b656;" parent="1" vertex="1">
                    <mxGeometry x="560" y="720" width="140" height="90" as="geometry"/>
                </mxCell>
                <mxCell id="-B6g9c8ar-UpYTgJo7nr-10" value="&lt;font style=&quot;font-size: 30px;&quot;&gt;控制模块A对应的虚拟化环境&lt;br&gt;&lt;/font&gt;" style="rounded=0;whiteSpace=wrap;html=1;fillColor=#dae8fc;strokeColor=#6c8ebf;" parent="1" vertex="1">
                    <mxGeometry y="900" width="400" height="70" as="geometry"/>
                </mxCell>
                <mxCell id="-B6g9c8ar-UpYTgJo7nr-11" value="&lt;font color=&quot;#0000ff&quot; style=&quot;font-size: 22px;&quot;&gt;远程虚拟化和控制服务器&lt;br&gt;&lt;/font&gt;" style="text;html=1;align=center;verticalAlign=middle;resizable=0;points=[];autosize=1;strokeColor=none;fillColor=none;rotation=0;" parent="1" vertex="1">
                    <mxGeometry x="307" y="1220" width="270" height="40" as="geometry"/>
                </mxCell>
                <mxCell id="-B6g9c8ar-UpYTgJo7nr-12" value="&lt;font style=&quot;font-size: 30px;&quot;&gt;控制模块C&lt;br&gt;&lt;/font&gt;" style="rounded=0;whiteSpace=wrap;html=1;fillColor=#fff2cc;strokeColor=#d6b656;" parent="1" vertex="1">
                    <mxGeometry x="182" y="1320" width="140" height="90" as="geometry"/>
                </mxCell>
                <mxCell id="-B6g9c8ar-UpYTgJo7nr-13" value="&lt;font style=&quot;font-size: 30px;&quot;&gt;控制模块D&lt;br&gt;&lt;/font&gt;" style="rounded=0;whiteSpace=wrap;html=1;fillColor=#fff2cc;strokeColor=#d6b656;" parent="1" vertex="1">
                    <mxGeometry x="570" y="1320" width="140" height="90" as="geometry"/>
                </mxCell>
                <mxCell id="-B6g9c8ar-UpYTgJo7nr-14" value="" style="endArrow=classic;html=1;strokeWidth=3;" parent="1" edge="1">
                    <mxGeometry width="50" height="50" relative="1" as="geometry">
                        <mxPoint x="425" y="240" as="sourcePoint"/>
                        <mxPoint x="425" y="320" as="targetPoint"/>
                    </mxGeometry>
                </mxCell>
                <mxCell id="-B6g9c8ar-UpYTgJo7nr-15" value="" style="endArrow=classic;html=1;strokeWidth=3;" parent="1" edge="1">
                    <mxGeometry width="50" height="50" relative="1" as="geometry">
                        <mxPoint x="120" y="360" as="sourcePoint"/>
                        <mxPoint x="300" y="360" as="targetPoint"/>
                    </mxGeometry>
                </mxCell>
                <mxCell id="-B6g9c8ar-UpYTgJo7nr-16" value="&lt;font color=&quot;#0000ff&quot; style=&quot;font-size: 22px;&quot;&gt;传感器数据&lt;br&gt;&lt;/font&gt;" style="text;html=1;align=center;verticalAlign=middle;resizable=0;points=[];autosize=1;strokeColor=none;fillColor=none;rotation=0;" parent="1" vertex="1">
                    <mxGeometry x="430" y="260" width="130" height="40" as="geometry"/>
                </mxCell>
                <mxCell id="-B6g9c8ar-UpYTgJo7nr-17" value="" style="endArrow=classic;html=1;strokeWidth=3;" parent="1" edge="1">
                    <mxGeometry width="50" height="50" relative="1" as="geometry">
                        <mxPoint x="425" y="380" as="sourcePoint"/>
                        <mxPoint x="425" y="470" as="targetPoint"/>
                    </mxGeometry>
                </mxCell>
                <mxCell id="-B6g9c8ar-UpYTgJo7nr-18" value="&lt;font color=&quot;#0000ff&quot; style=&quot;font-size: 22px;&quot;&gt;任务和环境信息&lt;br&gt;&lt;/font&gt;" style="text;html=1;align=center;verticalAlign=middle;resizable=0;points=[];autosize=1;strokeColor=none;fillColor=none;rotation=0;" parent="1" vertex="1">
                    <mxGeometry x="425" y="395" width="180" height="40" as="geometry"/>
                </mxCell>
                <mxCell id="-B6g9c8ar-UpYTgJo7nr-19" value="" style="endArrow=none;html=1;strokeWidth=3;" parent="1" edge="1">
                    <mxGeometry width="50" height="50" relative="1" as="geometry">
                        <mxPoint x="425" y="680" as="sourcePoint"/>
                        <mxPoint x="425" y="600" as="targetPoint"/>
                    </mxGeometry>
                </mxCell>
                <mxCell id="-B6g9c8ar-UpYTgJo7nr-20" value="&lt;font color=&quot;#0000ff&quot; style=&quot;font-size: 22px;&quot;&gt;控制模块选择&lt;br&gt;&lt;/font&gt;" style="text;html=1;align=center;verticalAlign=middle;resizable=0;points=[];autosize=1;strokeColor=none;fillColor=none;rotation=0;" parent="1" vertex="1">
                    <mxGeometry x="430" y="624" width="160" height="40" as="geometry"/>
                </mxCell>
                <mxCell id="-B6g9c8ar-UpYTgJo7nr-21" value="" style="endArrow=classic;html=1;strokeWidth=3;entryX=0.571;entryY=0;entryDx=0;entryDy=0;entryPerimeter=0;" parent="1" target="-B6g9c8ar-UpYTgJo7nr-9" edge="1">
                    <mxGeometry width="50" height="50" relative="1" as="geometry">
                        <mxPoint x="425" y="680" as="sourcePoint"/>
                        <mxPoint x="730" y="680" as="targetPoint"/>
                        <Array as="points">
                            <mxPoint x="640" y="680"/>
                        </Array>
                    </mxGeometry>
                </mxCell>
                <mxCell id="-B6g9c8ar-UpYTgJo7nr-22" value="" style="endArrow=classic;html=1;strokeWidth=3;entryX=0.436;entryY=0;entryDx=0;entryDy=0;entryPerimeter=0;" parent="1" target="-B6g9c8ar-UpYTgJo7nr-8" edge="1">
                    <mxGeometry width="50" height="50" relative="1" as="geometry">
                        <mxPoint x="425" y="680" as="sourcePoint"/>
                        <mxPoint x="190" y="680" as="targetPoint"/>
                        <Array as="points">
                            <mxPoint x="240" y="680"/>
                        </Array>
                    </mxGeometry>
                </mxCell>
                <mxCell id="-B6g9c8ar-UpYTgJo7nr-23" value="" style="endArrow=classic;html=1;strokeWidth=3;" parent="1" edge="1">
                    <mxGeometry width="50" height="50" relative="1" as="geometry">
                        <mxPoint x="244.5" y="810" as="sourcePoint"/>
                        <mxPoint x="244.5" y="900" as="targetPoint"/>
                    </mxGeometry>
                </mxCell>
                <mxCell id="-B6g9c8ar-UpYTgJo7nr-24" value="" style="endArrow=classic;html=1;strokeWidth=3;" parent="1" edge="1">
                    <mxGeometry width="50" height="50" relative="1" as="geometry">
                        <mxPoint x="640" y="810" as="sourcePoint"/>
                        <mxPoint x="640" y="900" as="targetPoint"/>
                    </mxGeometry>
                </mxCell>
                <mxCell id="-B6g9c8ar-UpYTgJo7nr-25" value="&lt;font color=&quot;#0000ff&quot; style=&quot;font-size: 22px;&quot;&gt;控制指令&lt;br&gt;&lt;/font&gt;" style="text;html=1;align=center;verticalAlign=middle;resizable=0;points=[];autosize=1;strokeColor=none;fillColor=none;rotation=0;" parent="1" vertex="1">
                    <mxGeometry x="240" y="830" width="110" height="40" as="geometry"/>
                </mxCell>
                <mxCell id="-B6g9c8ar-UpYTgJo7nr-26" value="&lt;font color=&quot;#0000ff&quot; style=&quot;font-size: 22px;&quot;&gt;控制指令&lt;br&gt;&lt;/font&gt;" style="text;html=1;align=center;verticalAlign=middle;resizable=0;points=[];autosize=1;strokeColor=none;fillColor=none;rotation=0;" parent="1" vertex="1">
                    <mxGeometry x="640" y="830" width="110" height="40" as="geometry"/>
                </mxCell>
                <mxCell id="-B6g9c8ar-UpYTgJo7nr-27" value="&lt;font style=&quot;font-size: 30px;&quot;&gt;控制模块B对应的虚拟化环境&lt;br&gt;&lt;/font&gt;" style="rounded=0;whiteSpace=wrap;html=1;fillColor=#dae8fc;strokeColor=#6c8ebf;" parent="1" vertex="1">
                    <mxGeometry x="480" y="900" width="400" height="70" as="geometry"/>
                </mxCell>
                <mxCell id="-B6g9c8ar-UpYTgJo7nr-28" value="" style="rounded=1;whiteSpace=wrap;html=1;fillColor=#f5f5f5;strokeColor=#666666;fontColor=#333333;" parent="1" vertex="1">
                    <mxGeometry x="-110" y="1050" width="1120" height="170" as="geometry"/>
                </mxCell>
                <mxCell id="-B6g9c8ar-UpYTgJo7nr-29" value="" style="image;html=1;image=img/lib/clip_art/computers/Server_128x128.png" parent="1" vertex="1">
                    <mxGeometry x="180" y="1080" width="520" height="120" as="geometry"/>
                </mxCell>
                <mxCell id="-B6g9c8ar-UpYTgJo7nr-30" value="" style="endArrow=classic;html=1;strokeWidth=3;" parent="1" edge="1">
                    <mxGeometry width="50" height="50" relative="1" as="geometry">
                        <mxPoint x="244.5" y="970" as="sourcePoint"/>
                        <mxPoint x="245" y="1050" as="targetPoint"/>
                    </mxGeometry>
                </mxCell>
                <mxCell id="-B6g9c8ar-UpYTgJo7nr-31" value="&lt;font color=&quot;#0000ff&quot; style=&quot;font-size: 22px;&quot;&gt;传感器数据和控制&lt;br&gt;&lt;/font&gt;" style="text;html=1;align=center;verticalAlign=middle;resizable=0;points=[];autosize=1;strokeColor=none;fillColor=none;rotation=0;" parent="1" vertex="1">
                    <mxGeometry x="240" y="990" width="200" height="40" as="geometry"/>
                </mxCell>
                <mxCell id="-B6g9c8ar-UpYTgJo7nr-32" value="" style="endArrow=classic;html=1;strokeWidth=3;" parent="1" edge="1">
                    <mxGeometry width="50" height="50" relative="1" as="geometry">
                        <mxPoint x="640" y="970" as="sourcePoint"/>
                        <mxPoint x="640.5" y="1050" as="targetPoint"/>
                    </mxGeometry>
                </mxCell>
                <mxCell id="-B6g9c8ar-UpYTgJo7nr-33" value="&lt;font color=&quot;#0000ff&quot; style=&quot;font-size: 22px;&quot;&gt;传感器数据和控制&lt;br&gt;&lt;/font&gt;" style="text;html=1;align=center;verticalAlign=middle;resizable=0;points=[];autosize=1;strokeColor=none;fillColor=none;rotation=0;" parent="1" vertex="1">
                    <mxGeometry x="640" y="990" width="200" height="40" as="geometry"/>
                </mxCell>
                <mxCell id="-B6g9c8ar-UpYTgJo7nr-34" value="" style="endArrow=classic;html=1;strokeWidth=3;entryX=0.443;entryY=-0.011;entryDx=0;entryDy=0;entryPerimeter=0;" parent="1" target="-B6g9c8ar-UpYTgJo7nr-12" edge="1">
                    <mxGeometry width="50" height="50" relative="1" as="geometry">
                        <mxPoint x="244.5" y="1220" as="sourcePoint"/>
                        <mxPoint x="245" y="1300" as="targetPoint"/>
                    </mxGeometry>
                </mxCell>
                <mxCell id="-B6g9c8ar-UpYTgJo7nr-35" value="" style="endArrow=classic;html=1;strokeWidth=3;entryX=0.443;entryY=-0.011;entryDx=0;entryDy=0;entryPerimeter=0;" parent="1" edge="1">
                    <mxGeometry width="50" height="50" relative="1" as="geometry">
                        <mxPoint x="640.48" y="1220" as="sourcePoint"/>
                        <mxPoint x="640" y="1319.0100000000002" as="targetPoint"/>
                    </mxGeometry>
                </mxCell>
                <mxCell id="-B6g9c8ar-UpYTgJo7nr-36" value="&lt;font color=&quot;#0000ff&quot; style=&quot;font-size: 22px;&quot;&gt;控制模块激活&lt;br&gt;&lt;/font&gt;" style="text;html=1;align=center;verticalAlign=middle;resizable=0;points=[];autosize=1;strokeColor=none;fillColor=none;rotation=0;" parent="1" vertex="1">
                    <mxGeometry x="80" y="1250" width="160" height="40" as="geometry"/>
                </mxCell>
                <mxCell id="-B6g9c8ar-UpYTgJo7nr-37" value="&lt;font color=&quot;#0000ff&quot; style=&quot;font-size: 22px;&quot;&gt;控制模块激活&lt;br&gt;&lt;/font&gt;" style="text;html=1;align=center;verticalAlign=middle;resizable=0;points=[];autosize=1;strokeColor=none;fillColor=none;rotation=0;" parent="1" vertex="1">
                    <mxGeometry x="640" y="1250" width="160" height="40" as="geometry"/>
                </mxCell>
                <mxCell id="-B6g9c8ar-UpYTgJo7nr-38" value="&lt;font style=&quot;font-size: 30px;&quot;&gt;控制模块C对应的虚拟化环境&lt;br&gt;&lt;/font&gt;" style="rounded=0;whiteSpace=wrap;html=1;fillColor=#dae8fc;strokeColor=#6c8ebf;" parent="1" vertex="1">
                    <mxGeometry x="40" y="1510" width="400" height="70" as="geometry"/>
                </mxCell>
                <mxCell id="-B6g9c8ar-UpYTgJo7nr-39" value="&lt;font color=&quot;#0000ff&quot; style=&quot;font-size: 22px;&quot;&gt;控制指令&lt;br&gt;&lt;/font&gt;" style="text;html=1;align=center;verticalAlign=middle;resizable=0;points=[];autosize=1;strokeColor=none;fillColor=none;rotation=0;" parent="1" vertex="1">
                    <mxGeometry x="249" y="1430" width="110" height="40" as="geometry"/>
                </mxCell>
                <mxCell id="-B6g9c8ar-UpYTgJo7nr-40" value="&lt;font color=&quot;#0000ff&quot; style=&quot;font-size: 22px;&quot;&gt;控制指令&lt;br&gt;&lt;/font&gt;" style="text;html=1;align=center;verticalAlign=middle;resizable=0;points=[];autosize=1;strokeColor=none;fillColor=none;rotation=0;" parent="1" vertex="1">
                    <mxGeometry x="650" y="1430" width="110" height="40" as="geometry"/>
                </mxCell>
                <mxCell id="-B6g9c8ar-UpYTgJo7nr-41" value="&lt;font style=&quot;font-size: 30px;&quot;&gt;控制模块D对应的虚拟化环境&lt;br&gt;&lt;/font&gt;" style="rounded=0;whiteSpace=wrap;html=1;fillColor=#dae8fc;strokeColor=#6c8ebf;" parent="1" vertex="1">
                    <mxGeometry x="510" y="1510" width="400" height="70" as="geometry"/>
                </mxCell>
                <mxCell id="-B6g9c8ar-UpYTgJo7nr-42" value="" style="endArrow=classic;html=1;strokeWidth=3;entryX=0.443;entryY=-0.011;entryDx=0;entryDy=0;entryPerimeter=0;" parent="1" edge="1">
                    <mxGeometry width="50" height="50" relative="1" as="geometry">
                        <mxPoint x="240.48000000000002" y="1410" as="sourcePoint"/>
                        <mxPoint x="240" y="1509.0100000000002" as="targetPoint"/>
                    </mxGeometry>
                </mxCell>
                <mxCell id="-B6g9c8ar-UpYTgJo7nr-43" value="" style="endArrow=classic;html=1;strokeWidth=3;entryX=0.443;entryY=-0.011;entryDx=0;entryDy=0;entryPerimeter=0;" parent="1" edge="1">
                    <mxGeometry width="50" height="50" relative="1" as="geometry">
                        <mxPoint x="640.48" y="1410" as="sourcePoint"/>
                        <mxPoint x="640" y="1509.0100000000002" as="targetPoint"/>
                    </mxGeometry>
                </mxCell>
                <mxCell id="-B6g9c8ar-UpYTgJo7nr-44" value="" style="endArrow=classic;html=1;strokeWidth=3;entryX=0.443;entryY=-0.011;entryDx=0;entryDy=0;entryPerimeter=0;" parent="1" edge="1">
                    <mxGeometry width="50" height="50" relative="1" as="geometry">
                        <mxPoint x="239.48000000000002" y="1580" as="sourcePoint"/>
                        <mxPoint x="239" y="1679.0100000000002" as="targetPoint"/>
                    </mxGeometry>
                </mxCell>
                <mxCell id="-B6g9c8ar-UpYTgJo7nr-45" value="" style="endArrow=classic;html=1;strokeWidth=3;entryX=0.443;entryY=-0.011;entryDx=0;entryDy=0;entryPerimeter=0;" parent="1" edge="1">
                    <mxGeometry width="50" height="50" relative="1" as="geometry">
                        <mxPoint x="640.48" y="1580" as="sourcePoint"/>
                        <mxPoint x="640" y="1679.0100000000002" as="targetPoint"/>
                    </mxGeometry>
                </mxCell>
                <mxCell id="-B6g9c8ar-UpYTgJo7nr-46" value="&lt;font color=&quot;#0000ff&quot; style=&quot;font-size: 22px;&quot;&gt;传感器数据和控制&lt;br&gt;&lt;/font&gt;" style="text;html=1;align=center;verticalAlign=middle;resizable=0;points=[];autosize=1;strokeColor=none;fillColor=none;rotation=0;" parent="1" vertex="1">
                    <mxGeometry x="650" y="1610" width="200" height="40" as="geometry"/>
                </mxCell>
                <mxCell id="-B6g9c8ar-UpYTgJo7nr-47" value="&lt;font color=&quot;#0000ff&quot; style=&quot;font-size: 22px;&quot;&gt;传感器数据和控制&lt;br&gt;&lt;/font&gt;" style="text;html=1;align=center;verticalAlign=middle;resizable=0;points=[];autosize=1;strokeColor=none;fillColor=none;rotation=0;" parent="1" vertex="1">
                    <mxGeometry x="249" y="1610" width="200" height="40" as="geometry"/>
                </mxCell>
                <mxCell id="-B6g9c8ar-UpYTgJo7nr-48" value="" style="rounded=1;whiteSpace=wrap;html=1;fillColor=#f5f5f5;strokeColor=#666666;fontColor=#333333;" parent="1" vertex="1">
                    <mxGeometry x="-120" y="1680" width="1120" height="170" as="geometry"/>
                </mxCell>
                <mxCell id="-B6g9c8ar-UpYTgJo7nr-49" value="" style="image;html=1;image=img/lib/clip_art/computers/Server_128x128.png" parent="1" vertex="1">
                    <mxGeometry x="170" y="1710" width="520" height="120" as="geometry"/>
                </mxCell>
                <mxCell id="-B6g9c8ar-UpYTgJo7nr-50" value="&lt;font style=&quot;font-size: 30px;&quot;&gt;控制模块E&lt;br&gt;&lt;/font&gt;" style="rounded=0;whiteSpace=wrap;html=1;fillColor=#fff2cc;strokeColor=#d6b656;" parent="1" vertex="1">
                    <mxGeometry x="170" y="1950" width="140" height="90" as="geometry"/>
                </mxCell>
                <mxCell id="-B6g9c8ar-UpYTgJo7nr-51" value="" style="endArrow=classic;html=1;strokeWidth=3;entryX=0.443;entryY=-0.011;entryDx=0;entryDy=0;entryPerimeter=0;" parent="1" edge="1">
                    <mxGeometry width="50" height="50" relative="1" as="geometry">
                        <mxPoint x="240.48000000000002" y="1850" as="sourcePoint"/>
                        <mxPoint x="240" y="1949.0100000000002" as="targetPoint"/>
                    </mxGeometry>
                </mxCell>
                <mxCell id="-B6g9c8ar-UpYTgJo7nr-52" value="&lt;font color=&quot;#0000ff&quot; style=&quot;font-size: 22px;&quot;&gt;控制模块激活&lt;br&gt;&lt;/font&gt;" style="text;html=1;align=center;verticalAlign=middle;resizable=0;points=[];autosize=1;strokeColor=none;fillColor=none;rotation=0;" parent="1" vertex="1">
                    <mxGeometry x="249" y="1880" width="160" height="40" as="geometry"/>
                </mxCell>
                <mxCell id="-B6g9c8ar-UpYTgJo7nr-53" value="&lt;font style=&quot;font-size: 30px;&quot;&gt;控制模块D对应的虚拟化环境&lt;br&gt;&lt;/font&gt;" style="rounded=0;whiteSpace=wrap;html=1;fillColor=#dae8fc;strokeColor=#6c8ebf;" parent="1" vertex="1">
                    <mxGeometry x="505" y="1960" width="400" height="70" as="geometry"/>
                </mxCell>
                <mxCell id="-B6g9c8ar-UpYTgJo7nr-54" value="" style="endArrow=classic;html=1;strokeWidth=3;entryX=0.34;entryY=-0.029;entryDx=0;entryDy=0;entryPerimeter=0;" parent="1" target="-B6g9c8ar-UpYTgJo7nr-53" edge="1">
                    <mxGeometry width="50" height="50" relative="1" as="geometry">
                        <mxPoint x="640.48" y="1850.9899999999998" as="sourcePoint"/>
                        <mxPoint x="640" y="1950.0000000000002" as="targetPoint"/>
                    </mxGeometry>
                </mxCell>
                <mxCell id="-B6g9c8ar-UpYTgJo7nr-55" value="" style="endArrow=classic;html=1;strokeWidth=3;" parent="1" edge="1">
                    <mxGeometry width="50" height="50" relative="1" as="geometry">
                        <mxPoint x="310" y="2000" as="sourcePoint"/>
                        <mxPoint x="507" y="2000" as="targetPoint"/>
                    </mxGeometry>
                </mxCell>
            </root>
        </mxGraphModel>
    </diagram>
</mxfile>